<mxfile host="65bd71144e">
    <diagram id="8ZL1vUDuiCrnHHDdSU_2" name="第1頁">
        <mxGraphModel dx="1315" dy="1178" grid="0" gridSize="10" guides="1" tooltips="0" connect="1" arrows="1" fold="1" page="1" pageScale="1" pageWidth="827" pageHeight="1169" math="0" shadow="0">
            <root>
                <mxCell id="0"/>
                <mxCell id="1" parent="0"/>
                <mxCell id="20" value="ros2 launch my_bringup tb3_simulation_launch.py slam:=True world:=/home/james/ros2_ws/src/my_nav2_bringup/my_bringup/worlds/my_own_world.model" style="rounded=1;whiteSpace=wrap;html=1;shadow=0;fillColor=#1ba1e2;fontColor=#ffffff;strokeColor=#006EAF;" vertex="1" parent="1">
                    <mxGeometry x="140" y="10" width="530" height="60" as="geometry"/>
                </mxCell>
                <mxCell id="35" style="edgeStyle=none;html=1;entryX=0.5;entryY=0;entryDx=0;entryDy=0;fontSize=20;" edge="1" parent="1" source="21" target="32">
                    <mxGeometry relative="1" as="geometry"/>
                </mxCell>
                <mxCell id="36" style="edgeStyle=none;html=1;fontSize=20;" edge="1" parent="1" source="21" target="33">
                    <mxGeometry relative="1" as="geometry"/>
                </mxCell>
                <mxCell id="49" style="edgeStyle=none;html=1;entryX=0.5;entryY=0;entryDx=0;entryDy=0;fontSize=20;" edge="1" parent="1" source="21" target="37">
                    <mxGeometry relative="1" as="geometry"/>
                </mxCell>
                <mxCell id="50" style="edgeStyle=none;html=1;entryX=0.5;entryY=0;entryDx=0;entryDy=0;fontSize=20;" edge="1" parent="1" source="21" target="38">
                    <mxGeometry relative="1" as="geometry"/>
                </mxCell>
                <mxCell id="51" style="edgeStyle=none;html=1;entryX=0.5;entryY=0;entryDx=0;entryDy=0;fontSize=20;" edge="1" parent="1" source="21" target="39">
                    <mxGeometry relative="1" as="geometry"/>
                </mxCell>
                <mxCell id="21" value="tb3_simulation_launch.py" style="rounded=1;whiteSpace=wrap;html=1;" vertex="1" parent="1">
                    <mxGeometry x="307.5" y="310" width="195" height="60" as="geometry"/>
                </mxCell>
                <mxCell id="27" style="edgeStyle=none;html=1;fontSize=14;entryX=0.5;entryY=0;entryDx=0;entryDy=0;" edge="1" parent="1" source="24" target="21">
                    <mxGeometry relative="1" as="geometry"/>
                </mxCell>
                <mxCell id="24" value="&lt;span&gt;/home/james/ros2_ws/src/my_nav2_bringup/my_bringup/worlds/my_own_world.model&lt;/span&gt;" style="rounded=1;whiteSpace=wrap;html=1;" vertex="1" parent="1">
                    <mxGeometry x="290" y="180" width="476" height="60" as="geometry"/>
                </mxCell>
                <mxCell id="25" value="&lt;font style=&quot;font-size: 14px&quot;&gt;指令&lt;/font&gt;" style="text;html=1;strokeColor=none;fillColor=none;align=center;verticalAlign=middle;whiteSpace=wrap;rounded=0;" vertex="1" parent="1">
                    <mxGeometry x="80" y="25" width="60" height="30" as="geometry"/>
                </mxCell>
                <mxCell id="26" value="&lt;font style=&quot;font-size: 14px&quot;&gt;流程&lt;/font&gt;" style="text;html=1;strokeColor=none;fillColor=none;align=center;verticalAlign=middle;whiteSpace=wrap;rounded=0;shadow=0;" vertex="1" parent="1">
                    <mxGeometry y="110" width="60" height="30" as="geometry"/>
                </mxCell>
                <mxCell id="30" style="edgeStyle=none;html=1;entryX=0.5;entryY=0;entryDx=0;entryDy=0;fontSize=14;" edge="1" parent="1" source="29" target="21">
                    <mxGeometry relative="1" as="geometry"/>
                </mxCell>
                <mxCell id="29" value="slam=True" style="rounded=1;whiteSpace=wrap;html=1;shadow=0;fontSize=14;" vertex="1" parent="1">
                    <mxGeometry x="130" y="180" width="120" height="60" as="geometry"/>
                </mxCell>
                <mxCell id="31" value="設定world的model以及參數slam" style="text;html=1;strokeColor=none;fillColor=none;align=center;verticalAlign=middle;whiteSpace=wrap;rounded=0;shadow=0;fontSize=14;" vertex="1" parent="1">
                    <mxGeometry x="118" y="268" width="180" height="30" as="geometry"/>
                </mxCell>
                <mxCell id="32" value="&lt;h1&gt;&lt;font style=&quot;font-size: 20px&quot;&gt;ExecuteProcess&lt;/font&gt;&lt;/h1&gt;&lt;div style=&quot;color: rgb(212 , 212 , 212) ; background-color: rgb(30 , 30 , 30) ; font-family: &amp;#34;droid sans mono&amp;#34; , &amp;#34;monospace&amp;#34; , monospace ; line-height: 19px&quot;&gt;&lt;span style=&quot;color: #ce9178&quot;&gt;gzserver&lt;/span&gt;&lt;/div&gt;&lt;div style=&quot;background-color: rgb(30 , 30 , 30) ; line-height: 19px&quot;&gt;&lt;font color=&quot;#ce9178&quot; face=&quot;droid sans mono, monospace, monospace&quot;&gt;{&lt;/font&gt;&lt;/div&gt;&lt;div style=&quot;background-color: rgb(30 , 30 , 30) ; line-height: 19px&quot;&gt;&lt;div style=&quot;color: rgb(212 , 212 , 212) ; font-family: &amp;#34;droid sans mono&amp;#34; , &amp;#34;monospace&amp;#34; , monospace ; line-height: 19px&quot;&gt;&lt;span style=&quot;color: #4ec9b0&quot;&gt;IfCondition&lt;/span&gt;(&lt;/div&gt;&lt;div style=&quot;color: rgb(212 , 212 , 212) ; font-family: &amp;#34;droid sans mono&amp;#34; , &amp;#34;monospace&amp;#34; , monospace ; line-height: 19px&quot;&gt;&lt;span style=&quot;color: #9cdcfe&quot;&gt;use_simulator&lt;/span&gt;)&lt;/div&gt;&lt;/div&gt;&lt;span style=&quot;color: rgb(156 , 220 , 254) ; font-family: &amp;#34;droid sans mono&amp;#34; , &amp;#34;monospace&amp;#34; , monospace ; background-color: rgb(30 , 30 , 30)&quot;&gt;world&lt;/span&gt;&lt;div style=&quot;background-color: rgb(30 , 30 , 30) ; line-height: 19px&quot;&gt;&lt;font color=&quot;#ce9178&quot; face=&quot;droid sans mono, monospace, monospace&quot;&gt;}&lt;/font&gt;&lt;/div&gt;" style="text;html=1;strokeColor=default;fillColor=none;spacing=5;spacingTop=-20;whiteSpace=wrap;overflow=hidden;rounded=0;shadow=0;fontSize=14;dashed=1;" vertex="1" parent="1">
                    <mxGeometry x="5" y="440" width="160" height="182" as="geometry"/>
                </mxCell>
                <mxCell id="33" value="&lt;h1&gt;&lt;font style=&quot;font-size: 20px&quot;&gt;ExecuteProcess&lt;/font&gt;&lt;/h1&gt;&lt;div style=&quot;color: rgb(212 , 212 , 212) ; background-color: rgb(30 , 30 , 30) ; font-family: &amp;#34;droid sans mono&amp;#34; , &amp;#34;monospace&amp;#34; , monospace ; line-height: 19px&quot;&gt;&lt;span style=&quot;color: #ce9178&quot;&gt;gzclient&lt;/span&gt;&lt;/div&gt;&lt;div style=&quot;color: rgb(212 , 212 , 212) ; background-color: rgb(30 , 30 , 30) ; font-family: &amp;#34;droid sans mono&amp;#34; , &amp;#34;monospace&amp;#34; , monospace ; line-height: 19px&quot;&gt;&lt;span style=&quot;color: #ce9178&quot;&gt;{&lt;/span&gt;&lt;/div&gt;&lt;div style=&quot;color: rgb(212 , 212 , 212) ; background-color: rgb(30 , 30 , 30) ; font-family: &amp;#34;droid sans mono&amp;#34; , &amp;#34;monospace&amp;#34; , monospace ; line-height: 19px&quot;&gt;&lt;div style=&quot;font-family: &amp;#34;droid sans mono&amp;#34; , &amp;#34;monospace&amp;#34; , monospace ; line-height: 19px&quot;&gt;&lt;div&gt;&lt;span style=&quot;color: #4ec9b0&quot;&gt;IfCondition&lt;/span&gt;((&lt;/div&gt;&lt;div&gt;            [&lt;span style=&quot;color: #9cdcfe&quot;&gt;use_simulator&lt;/span&gt;, &lt;span style=&quot;color: #ce9178&quot;&gt;' and not '&lt;/span&gt;, &lt;span style=&quot;color: #9cdcfe&quot;&gt;headless&lt;/span&gt;])&lt;/div&gt;&lt;/div&gt;&lt;/div&gt;&lt;div style=&quot;color: rgb(212 , 212 , 212) ; background-color: rgb(30 , 30 , 30) ; font-family: &amp;#34;droid sans mono&amp;#34; , &amp;#34;monospace&amp;#34; , monospace ; line-height: 19px&quot;&gt;&lt;span style=&quot;color: #ce9178&quot;&gt;}&lt;/span&gt;&lt;/div&gt;&lt;span style=&quot;color: rgb(156 , 220 , 254) ; font-family: &amp;#34;droid sans mono&amp;#34; , &amp;#34;monospace&amp;#34; , monospace ; background-color: rgb(30 , 30 , 30)&quot;&gt;&lt;br&gt;&lt;/span&gt;" style="text;html=1;strokeColor=default;fillColor=none;spacing=5;spacingTop=-20;whiteSpace=wrap;overflow=hidden;rounded=0;shadow=0;fontSize=14;dashed=1;" vertex="1" parent="1">
                    <mxGeometry x="176" y="440" width="171" height="200" as="geometry"/>
                </mxCell>
                <mxCell id="37" value="&lt;h1&gt;&lt;span style=&quot;font-size: 20px&quot;&gt;Node&lt;/span&gt;&lt;/h1&gt;&lt;div style=&quot;color: rgb(212 , 212 , 212) ; background-color: rgb(30 , 30 , 30) ; font-family: &amp;#34;droid sans mono&amp;#34; , &amp;#34;monospace&amp;#34; , monospace ; line-height: 19px&quot;&gt;&lt;div style=&quot;font-family: &amp;#34;droid sans mono&amp;#34; , &amp;#34;monospace&amp;#34; , monospace ; line-height: 19px&quot;&gt;&lt;span style=&quot;color: #ce9178&quot;&gt;robot_state_publisher&lt;/span&gt;&lt;/div&gt;&lt;div style=&quot;font-family: &amp;#34;droid sans mono&amp;#34; , &amp;#34;monospace&amp;#34; , monospace ; line-height: 19px&quot;&gt;&lt;span style=&quot;color: #ce9178&quot;&gt;{&lt;/span&gt;&lt;/div&gt;&lt;div style=&quot;font-family: &amp;#34;droid sans mono&amp;#34; , &amp;#34;monospace&amp;#34; , monospace ; line-height: 19px&quot;&gt;&lt;div style=&quot;font-family: &amp;#34;droid sans mono&amp;#34; , &amp;#34;monospace&amp;#34; , monospace ; line-height: 19px&quot;&gt;&lt;span style=&quot;color: #4ec9b0&quot;&gt;IfCondition&lt;/span&gt;(&lt;span style=&quot;color: #9cdcfe&quot;&gt;use_robot_state_pub&lt;/span&gt;)&lt;/div&gt;&lt;/div&gt;&lt;/div&gt;&lt;div style=&quot;background-color: rgb(30 , 30 , 30) ; font-family: &amp;#34;droid sans mono&amp;#34; , &amp;#34;monospace&amp;#34; , monospace ; line-height: 19px&quot;&gt;&lt;div style=&quot;color: rgb(212 , 212 , 212)&quot;&gt;&lt;span style=&quot;color: #9cdcfe&quot;&gt;remappings&lt;/span&gt; = [(&lt;span style=&quot;color: #ce9178&quot;&gt;'/tf'&lt;/span&gt;, &lt;span style=&quot;color: #ce9178&quot;&gt;'tf'&lt;/span&gt;),&lt;/div&gt;&lt;div style=&quot;color: rgb(212 , 212 , 212)&quot;&gt;                  (&lt;span style=&quot;color: #ce9178&quot;&gt;'/tf_static'&lt;/span&gt;, &lt;span style=&quot;color: #ce9178&quot;&gt;'tf_static'&lt;/span&gt;)]&lt;/div&gt;&lt;div&gt;&lt;div style=&quot;font-family: &amp;#34;droid sans mono&amp;#34; , &amp;#34;monospace&amp;#34; , monospace ; line-height: 19px&quot;&gt;&lt;span style=&quot;color: rgb(156 , 220 , 254)&quot;&gt;arguments = urdf&lt;/span&gt;&lt;/div&gt;&lt;/div&gt;&lt;div style=&quot;color: rgb(212 , 212 , 212)&quot;&gt;&lt;div style=&quot;font-family: &amp;#34;droid sans mono&amp;#34; , &amp;#34;monospace&amp;#34; , monospace ; line-height: 19px&quot;&gt;&lt;span style=&quot;color: #9cdcfe&quot;&gt;namespace&lt;/span&gt;&lt;/div&gt;&lt;/div&gt;&lt;div style=&quot;color: rgb(212 , 212 , 212)&quot;&gt;&lt;div style=&quot;font-family: &amp;#34;droid sans mono&amp;#34; , &amp;#34;monospace&amp;#34; , monospace ; line-height: 19px&quot;&gt;&lt;span style=&quot;color: #ce9178&quot;&gt;use_sim_time&lt;/span&gt;&lt;/div&gt;&lt;/div&gt;&lt;div style=&quot;color: rgb(212 , 212 , 212)&quot;&gt;}&lt;/div&gt;&lt;/div&gt;" style="text;html=1;strokeColor=default;fillColor=none;spacing=5;spacingTop=-20;whiteSpace=wrap;overflow=hidden;rounded=0;shadow=0;fontSize=14;dashed=1;" vertex="1" parent="1">
                    <mxGeometry x="365" y="440" width="279" height="230" as="geometry"/>
                </mxCell>
                <mxCell id="62" style="edgeStyle=none;html=1;entryX=0.5;entryY=0;entryDx=0;entryDy=0;fontSize=20;exitX=0.5;exitY=1;exitDx=0;exitDy=0;" edge="1" parent="1" source="38" target="61">
                    <mxGeometry relative="1" as="geometry"/>
                </mxCell>
                <mxCell id="38" value="&lt;h1&gt;&lt;span style=&quot;font-size: 20px&quot;&gt;launch&lt;/span&gt;&lt;/h1&gt;&lt;div style=&quot;background-color: rgb(30 , 30 , 30) ; font-family: &amp;#34;droid sans mono&amp;#34; , &amp;#34;monospace&amp;#34; , monospace ; line-height: 19px&quot;&gt;&lt;div style=&quot;color: rgb(212 , 212 , 212) ; font-family: &amp;#34;droid sans mono&amp;#34; , &amp;#34;monospace&amp;#34; , monospace ; line-height: 19px&quot;&gt;&lt;span style=&quot;color: #ce9178&quot;&gt;rviz_launch.py&lt;/span&gt;&lt;/div&gt;&lt;div style=&quot;font-family: &amp;#34;droid sans mono&amp;#34; , &amp;#34;monospace&amp;#34; , monospace ; line-height: 19px&quot;&gt;&lt;div style=&quot;font-family: &amp;#34;droid sans mono&amp;#34; , &amp;#34;monospace&amp;#34; , monospace ; line-height: 19px&quot;&gt;&lt;font color=&quot;#ce9178&quot;&gt;{&lt;/font&gt;&lt;/div&gt;&lt;div style=&quot;font-family: &amp;#34;droid sans mono&amp;#34; , &amp;#34;monospace&amp;#34; , monospace ; line-height: 19px&quot;&gt;&lt;div style=&quot;color: rgb(212 , 212 , 212) ; font-family: &amp;#34;droid sans mono&amp;#34; , &amp;#34;monospace&amp;#34; , monospace ; line-height: 19px&quot;&gt;&lt;span style=&quot;color: #4ec9b0&quot;&gt;IfCondition&lt;/span&gt;(&lt;/div&gt;&lt;div style=&quot;color: rgb(212 , 212 , 212) ; font-family: &amp;#34;droid sans mono&amp;#34; , &amp;#34;monospace&amp;#34; , monospace ; line-height: 19px&quot;&gt;&lt;span style=&quot;color: #9cdcfe&quot;&gt;use_rviz&lt;/span&gt;)&lt;/div&gt;&lt;/div&gt;&lt;div style=&quot;color: rgb(212 , 212 , 212) ; font-family: &amp;#34;droid sans mono&amp;#34; , &amp;#34;monospace&amp;#34; , monospace ; line-height: 19px&quot;&gt;&lt;span style=&quot;color: rgb(206 , 145 , 120)&quot;&gt;'rviz_config_file'&lt;/span&gt;&lt;/div&gt;&lt;div style=&quot;font-family: &amp;#34;droid sans mono&amp;#34; , &amp;#34;monospace&amp;#34; , monospace ; line-height: 19px&quot;&gt;&lt;div style=&quot;font-family: &amp;#34;droid sans mono&amp;#34; , &amp;#34;monospace&amp;#34; , monospace ; line-height: 19px&quot;&gt;&lt;div style=&quot;color: rgb(212 , 212 , 212)&quot;&gt;&lt;span style=&quot;color: #ce9178&quot;&gt;'namespace'&lt;/span&gt;&lt;/div&gt;&lt;div&gt;                          &lt;span style=&quot;color: rgb(206 , 145 , 120)&quot;&gt;'use_namespace'&lt;/span&gt;&lt;/div&gt;&lt;div&gt;&lt;span style=&quot;color: rgb(206 , 145 , 120)&quot;&gt;}&lt;/span&gt;&lt;/div&gt;&lt;/div&gt;&lt;/div&gt;&lt;/div&gt;&lt;/div&gt;&lt;span style=&quot;color: rgb(156 , 220 , 254) ; font-family: &amp;#34;droid sans mono&amp;#34; , &amp;#34;monospace&amp;#34; , monospace ; background-color: rgb(30 , 30 , 30)&quot;&gt;&lt;br&gt;&lt;br&gt;&lt;/span&gt;" style="text;html=1;strokeColor=default;fillColor=none;spacing=5;spacingTop=-20;whiteSpace=wrap;overflow=hidden;rounded=0;shadow=0;fontSize=14;dashed=1;" vertex="1" parent="1">
                    <mxGeometry x="663" y="440" width="164" height="217" as="geometry"/>
                </mxCell>
                <mxCell id="56" style="edgeStyle=none;html=1;entryX=0.5;entryY=0;entryDx=0;entryDy=0;fontSize=20;" edge="1" parent="1" source="39" target="52">
                    <mxGeometry relative="1" as="geometry"/>
                </mxCell>
                <mxCell id="57" style="edgeStyle=none;html=1;entryX=0.5;entryY=0;entryDx=0;entryDy=0;fontSize=20;" edge="1" parent="1" source="39" target="54">
                    <mxGeometry relative="1" as="geometry"/>
                </mxCell>
                <mxCell id="58" style="edgeStyle=none;html=1;entryX=0.5;entryY=0;entryDx=0;entryDy=0;fontSize=20;" edge="1" parent="1" source="39" target="53">
                    <mxGeometry relative="1" as="geometry"/>
                </mxCell>
                <mxCell id="39" value="&lt;h1&gt;&lt;span style=&quot;font-size: 20px&quot;&gt;launch&lt;/span&gt;&lt;/h1&gt;&lt;div style=&quot;color: rgb(212 , 212 , 212) ; background-color: rgb(30 , 30 , 30) ; font-family: &amp;#34;droid sans mono&amp;#34; , &amp;#34;monospace&amp;#34; , monospace ; line-height: 19px&quot;&gt;&lt;div style=&quot;font-family: &amp;#34;droid sans mono&amp;#34; , &amp;#34;monospace&amp;#34; , monospace ; line-height: 19px&quot;&gt;&lt;span style=&quot;color: #ce9178&quot;&gt;bringup_launch.py&lt;/span&gt;&lt;/div&gt;&lt;div style=&quot;font-family: &amp;#34;droid sans mono&amp;#34; , &amp;#34;monospace&amp;#34; , monospace ; line-height: 19px&quot;&gt;&lt;span style=&quot;color: #ce9178&quot;&gt;{&lt;/span&gt;&lt;/div&gt;&lt;div style=&quot;font-family: &amp;#34;droid sans mono&amp;#34; , &amp;#34;monospace&amp;#34; , monospace ; line-height: 19px&quot;&gt;&lt;div style=&quot;font-family: &amp;#34;droid sans mono&amp;#34; , &amp;#34;monospace&amp;#34; , monospace ; line-height: 19px&quot;&gt;&lt;div&gt;&lt;span style=&quot;color: #ce9178&quot;&gt;'namespace'&lt;/span&gt;&lt;/div&gt;&lt;div&gt;                          &lt;span style=&quot;color: #ce9178&quot;&gt;'use_namespace'&lt;/span&gt;&lt;/div&gt;&lt;div&gt;                          &lt;span style=&quot;color: #ce9178&quot;&gt;'slam'&lt;/span&gt;&lt;/div&gt;&lt;div&gt;&lt;span style=&quot;color: rgb(206 , 145 , 120)&quot;&gt;'map'&lt;/span&gt;&lt;br&gt;&lt;/div&gt;&lt;div&gt;                          &lt;span style=&quot;color: #ce9178&quot;&gt;'use_sim_time'&lt;/span&gt;&lt;/div&gt;&lt;div&gt;                          &lt;span style=&quot;color: #ce9178&quot;&gt;'params_file'&lt;/span&gt;&lt;/div&gt;&lt;div&gt;                          &lt;span style=&quot;color: #ce9178&quot;&gt;'default_bt_xml_filename'&lt;/span&gt;&lt;/div&gt;&lt;div&gt;                          &lt;span style=&quot;color: #ce9178&quot;&gt;'autostart'&lt;/span&gt;&lt;/div&gt;&lt;div&gt;&lt;span style=&quot;color: #ce9178&quot;&gt;}&lt;/span&gt;&lt;/div&gt;&lt;/div&gt;&lt;/div&gt;&lt;/div&gt;&lt;span style=&quot;color: rgb(156 , 220 , 254) ; font-family: &amp;#34;droid sans mono&amp;#34; , &amp;#34;monospace&amp;#34; , monospace ; background-color: rgb(30 , 30 , 30)&quot;&gt;&lt;br&gt;&lt;/span&gt;" style="text;html=1;strokeColor=default;fillColor=none;spacing=5;spacingTop=-20;whiteSpace=wrap;overflow=hidden;rounded=0;shadow=0;fontSize=14;dashed=1;" vertex="1" parent="1">
                    <mxGeometry x="840" y="450" width="220" height="280" as="geometry"/>
                </mxCell>
                <mxCell id="48" style="edgeStyle=none;html=1;fontSize=20;entryX=1;entryY=0.5;entryDx=0;entryDy=0;" edge="1" parent="1" source="47" target="21">
                    <mxGeometry relative="1" as="geometry">
                        <mxPoint x="510.0000000000002" y="340" as="targetPoint"/>
                    </mxGeometry>
                </mxCell>
                <mxCell id="47" value="&lt;div style=&quot;color: rgb(212 , 212 , 212) ; background-color: rgb(30 , 30 , 30) ; font-family: &amp;#34;droid sans mono&amp;#34; , &amp;#34;monospace&amp;#34; , monospace ; font-size: 14px ; line-height: 19px&quot;&gt;&lt;span style=&quot;color: #ce9178&quot;&gt;namespace = ''&lt;/span&gt;&lt;/div&gt;&lt;div style=&quot;color: rgb(212 , 212 , 212) ; background-color: rgb(30 , 30 , 30) ; font-family: &amp;#34;droid sans mono&amp;#34; , &amp;#34;monospace&amp;#34; , monospace ; font-size: 14px ; line-height: 19px&quot;&gt;&lt;div style=&quot;line-height: 19px&quot;&gt;&lt;span style=&quot;color: #ce9178&quot;&gt;use_namespace = False&lt;/span&gt;&lt;/div&gt;&lt;div style=&quot;line-height: 19px&quot;&gt;&lt;div style=&quot;line-height: 19px&quot;&gt;&lt;span style=&quot;color: #ce9178&quot;&gt;slam = True&lt;/span&gt;&lt;/div&gt;&lt;div style=&quot;line-height: 19px&quot;&gt;&lt;div style=&quot;line-height: 19px&quot;&gt;&lt;span style=&quot;color: #ce9178&quot;&gt;map =&amp;nbsp;&lt;/span&gt;&lt;span style=&quot;color: rgb(206 , 145 , 120)&quot;&gt;turtlebot3_world.yaml&lt;/span&gt;&lt;/div&gt;&lt;div style=&quot;line-height: 19px&quot;&gt;&lt;div style=&quot;font-family: &amp;#34;droid sans mono&amp;#34; , &amp;#34;monospace&amp;#34; , monospace ; line-height: 19px&quot;&gt;&lt;span style=&quot;color: #ce9178&quot;&gt;use_sim_time = True&lt;/span&gt;&lt;/div&gt;&lt;/div&gt;&lt;div style=&quot;line-height: 19px&quot;&gt;&lt;div style=&quot;font-family: &amp;#34;droid sans mono&amp;#34; , &amp;#34;monospace&amp;#34; , monospace ; line-height: 19px&quot;&gt;&lt;span style=&quot;color: #ce9178&quot;&gt;params_file =&amp;nbsp;&lt;/span&gt;&lt;span style=&quot;color: rgb(206 , 145 , 120)&quot;&gt;nav2_params.yaml&lt;/span&gt;&lt;/div&gt;&lt;/div&gt;&lt;div style=&quot;line-height: 19px&quot;&gt;&lt;div style=&quot;font-family: &amp;#34;droid sans mono&amp;#34; , &amp;#34;monospace&amp;#34; , monospace ; line-height: 19px&quot;&gt;&lt;span style=&quot;color: #ce9178&quot;&gt;default_bt_xml_filename =&amp;nbsp;&lt;/span&gt;&lt;span style=&quot;color: rgb(206 , 145 , 120)&quot;&gt;navigate_w_replanning_and_recovery.xml&lt;/span&gt;&lt;/div&gt;&lt;/div&gt;&lt;div style=&quot;line-height: 19px&quot;&gt;&lt;div style=&quot;font-family: &amp;#34;droid sans mono&amp;#34; , &amp;#34;monospace&amp;#34; , monospace ; line-height: 19px&quot;&gt;&lt;span style=&quot;color: #ce9178&quot;&gt;autostart =&amp;nbsp;&lt;/span&gt;&lt;span style=&quot;color: rgb(206 , 145 , 120)&quot;&gt;True&lt;/span&gt;&lt;/div&gt;&lt;/div&gt;&lt;div style=&quot;line-height: 19px&quot;&gt;&lt;div style=&quot;font-family: &amp;#34;droid sans mono&amp;#34; , &amp;#34;monospace&amp;#34; , monospace ; line-height: 19px&quot;&gt;&lt;span style=&quot;color: #ce9178&quot;&gt;rviz_config_file =&amp;nbsp;&lt;/span&gt;&lt;span style=&quot;color: rgb(206 , 145 , 120)&quot;&gt;nav2_default_view.rviz&lt;/span&gt;&lt;/div&gt;&lt;/div&gt;&lt;div style=&quot;line-height: 19px&quot;&gt;&lt;div style=&quot;font-family: &amp;#34;droid sans mono&amp;#34; , &amp;#34;monospace&amp;#34; , monospace ; line-height: 19px&quot;&gt;&lt;span style=&quot;color: #ce9178&quot;&gt;use_simulator = True&lt;/span&gt;&lt;/div&gt;&lt;div style=&quot;font-family: &amp;#34;droid sans mono&amp;#34; , &amp;#34;monospace&amp;#34; , monospace ; line-height: 19px&quot;&gt;&lt;div style=&quot;line-height: 19px&quot;&gt;&lt;span style=&quot;color: #ce9178&quot;&gt;use_rviz = True&lt;/span&gt;&lt;/div&gt;&lt;div style=&quot;line-height: 19px&quot;&gt;&lt;div style=&quot;font-family: &amp;#34;droid sans mono&amp;#34; , &amp;#34;monospace&amp;#34; , monospace ; line-height: 19px&quot;&gt;&lt;span style=&quot;color: #ce9178&quot;&gt;headless = False&lt;/span&gt;&lt;/div&gt;&lt;/div&gt;&lt;/div&gt;&lt;div style=&quot;font-family: &amp;#34;droid sans mono&amp;#34; , &amp;#34;monospace&amp;#34; , monospace ; line-height: 19px&quot;&gt;&lt;div style=&quot;line-height: 19px&quot;&gt;&lt;span style=&quot;color: #ce9178&quot;&gt;world =&amp;nbsp;&lt;/span&gt;&lt;span style=&quot;color: rgb(206 , 145 , 120)&quot;&gt;waffle.model&lt;/span&gt;&lt;/div&gt;&lt;/div&gt;&lt;div style=&quot;font-family: &amp;#34;droid sans mono&amp;#34; , &amp;#34;monospace&amp;#34; , monospace ; line-height: 19px&quot;&gt;&lt;div style=&quot;line-height: 19px&quot;&gt;&lt;span style=&quot;color: #9cdcfe&quot;&gt;urdf =&amp;nbsp;&lt;/span&gt;&lt;span style=&quot;color: rgb(206 , 145 , 120)&quot;&gt;turtlebot3_waffle.urdf&lt;/span&gt;&lt;/div&gt;&lt;/div&gt;&lt;/div&gt;&lt;/div&gt;&lt;/div&gt;&lt;/div&gt;" style="text;html=1;strokeColor=none;fillColor=none;align=center;verticalAlign=middle;whiteSpace=wrap;rounded=0;shadow=0;dashed=1;fontSize=20;" vertex="1" parent="1">
                    <mxGeometry x="860" y="130" width="550" height="260" as="geometry"/>
                </mxCell>
                <mxCell id="72" style="edgeStyle=none;html=1;entryX=0.5;entryY=0;entryDx=0;entryDy=0;fontSize=20;" edge="1" parent="1" source="52" target="71">
                    <mxGeometry relative="1" as="geometry"/>
                </mxCell>
                <mxCell id="74" style="edgeStyle=none;html=1;entryX=0.5;entryY=0;entryDx=0;entryDy=0;fontSize=20;" edge="1" parent="1" source="52" target="73">
                    <mxGeometry relative="1" as="geometry"/>
                </mxCell>
                <mxCell id="76" style="edgeStyle=none;html=1;entryX=0.5;entryY=0;entryDx=0;entryDy=0;fontSize=20;" edge="1" parent="1" source="52" target="75">
                    <mxGeometry relative="1" as="geometry"/>
                </mxCell>
                <mxCell id="52" value="&lt;h1&gt;&lt;span style=&quot;font-size: 20px&quot;&gt;launch&lt;/span&gt;&lt;/h1&gt;&lt;div style=&quot;background-color: rgb(30 , 30 , 30) ; font-family: &amp;#34;droid sans mono&amp;#34; , &amp;#34;monospace&amp;#34; , monospace ; line-height: 19px&quot;&gt;&lt;div style=&quot;color: rgb(212 , 212 , 212) ; font-family: &amp;#34;droid sans mono&amp;#34; , &amp;#34;monospace&amp;#34; , monospace ; line-height: 19px&quot;&gt;&lt;span style=&quot;color: #ce9178&quot;&gt;slam_launch.py&lt;/span&gt;&lt;/div&gt;&lt;div style=&quot;font-family: &amp;#34;droid sans mono&amp;#34; , &amp;#34;monospace&amp;#34; , monospace ; line-height: 19px&quot;&gt;&lt;div style=&quot;font-family: &amp;#34;droid sans mono&amp;#34; , &amp;#34;monospace&amp;#34; , monospace ; line-height: 19px&quot;&gt;&lt;font color=&quot;#ce9178&quot;&gt;{&lt;/font&gt;&lt;/div&gt;&lt;div style=&quot;font-family: &amp;#34;droid sans mono&amp;#34; , &amp;#34;monospace&amp;#34; , monospace ; line-height: 19px&quot;&gt;&lt;div style=&quot;color: rgb(212 , 212 , 212) ; font-family: &amp;#34;droid sans mono&amp;#34; , &amp;#34;monospace&amp;#34; , monospace ; line-height: 19px&quot;&gt;&lt;span style=&quot;color: #4ec9b0&quot;&gt;IfCondition&lt;/span&gt;(&lt;span style=&quot;color: #9cdcfe&quot;&gt;slam&lt;/span&gt;)&lt;/div&gt;&lt;/div&gt;&lt;div style=&quot;font-family: &amp;#34;droid sans mono&amp;#34; , &amp;#34;monospace&amp;#34; , monospace ; line-height: 19px&quot;&gt;&lt;span style=&quot;color: rgb(206 , 145 , 120)&quot;&gt;'namespace'&lt;/span&gt;&lt;span style=&quot;color: rgb(206 , 145 , 120)&quot;&gt;&lt;br&gt;&lt;/span&gt;&lt;/div&gt;&lt;div style=&quot;font-family: &amp;#34;droid sans mono&amp;#34; , &amp;#34;monospace&amp;#34; , monospace ; line-height: 19px&quot;&gt;&lt;span style=&quot;color: rgb(206 , 145 , 120)&quot;&gt;'use_sim_time'&lt;/span&gt;&lt;/div&gt;&lt;div style=&quot;font-family: &amp;#34;droid sans mono&amp;#34; , &amp;#34;monospace&amp;#34; , monospace ; line-height: 19px&quot;&gt;&lt;span style=&quot;color: rgb(206 , 145 , 120)&quot;&gt;'autostart'&lt;/span&gt;&lt;/div&gt;&lt;div style=&quot;font-family: &amp;#34;droid sans mono&amp;#34; , &amp;#34;monospace&amp;#34; , monospace ; line-height: 19px&quot;&gt;&lt;div style=&quot;font-family: &amp;#34;droid sans mono&amp;#34; , &amp;#34;monospace&amp;#34; , monospace ; line-height: 19px&quot;&gt;&lt;div&gt;                          &lt;span style=&quot;color: rgb(206 , 145 , 120)&quot;&gt;'params_file'&lt;/span&gt;&lt;/div&gt;&lt;div&gt;&lt;span style=&quot;color: rgb(206 , 145 , 120)&quot;&gt;}&lt;/span&gt;&lt;/div&gt;&lt;/div&gt;&lt;/div&gt;&lt;/div&gt;&lt;/div&gt;&lt;span style=&quot;color: rgb(156 , 220 , 254) ; font-family: &amp;#34;droid sans mono&amp;#34; , &amp;#34;monospace&amp;#34; , monospace ; background-color: rgb(30 , 30 , 30)&quot;&gt;&lt;br&gt;&lt;br&gt;&lt;/span&gt;" style="text;html=1;strokeColor=default;fillColor=none;spacing=5;spacingTop=-20;whiteSpace=wrap;overflow=hidden;rounded=0;shadow=0;fontSize=14;dashed=1;" vertex="1" parent="1">
                    <mxGeometry x="878" y="860" width="162" height="200" as="geometry"/>
                </mxCell>
                <mxCell id="53" value="&lt;h1&gt;&lt;span style=&quot;font-size: 20px&quot;&gt;launch&lt;/span&gt;&lt;/h1&gt;&lt;div style=&quot;background-color: rgb(30 , 30 , 30) ; font-family: &amp;#34;droid sans mono&amp;#34; , &amp;#34;monospace&amp;#34; , monospace ; line-height: 19px&quot;&gt;&lt;div style=&quot;font-family: &amp;#34;droid sans mono&amp;#34; , &amp;#34;monospace&amp;#34; , monospace ; line-height: 19px&quot;&gt;&lt;div style=&quot;font-family: &amp;#34;droid sans mono&amp;#34; , &amp;#34;monospace&amp;#34; , monospace ; line-height: 19px&quot;&gt;&lt;font color=&quot;#9cdcfe&quot;&gt;因為slam為True因此不會啟動&lt;/font&gt;&lt;/div&gt;&lt;/div&gt;&lt;div style=&quot;color: rgb(212 , 212 , 212) ; font-family: &amp;#34;droid sans mono&amp;#34; , &amp;#34;monospace&amp;#34; , monospace ; line-height: 19px&quot;&gt;&lt;span style=&quot;color: #ce9178&quot;&gt;localization_launch.py&lt;/span&gt;&lt;/div&gt;&lt;div style=&quot;font-family: &amp;#34;droid sans mono&amp;#34; , &amp;#34;monospace&amp;#34; , monospace ; line-height: 19px&quot;&gt;&lt;div style=&quot;font-family: &amp;#34;droid sans mono&amp;#34; , &amp;#34;monospace&amp;#34; , monospace ; line-height: 19px&quot;&gt;&lt;font color=&quot;#ce9178&quot;&gt;{&lt;/font&gt;&lt;/div&gt;&lt;div style=&quot;font-family: &amp;#34;droid sans mono&amp;#34; , &amp;#34;monospace&amp;#34; , monospace ; line-height: 19px&quot;&gt;&lt;div style=&quot;color: rgb(212 , 212 , 212) ; font-family: &amp;#34;droid sans mono&amp;#34; , &amp;#34;monospace&amp;#34; , monospace ; line-height: 19px&quot;&gt;&lt;span style=&quot;color: #4ec9b0&quot;&gt;IfCondition&lt;/span&gt;(&lt;/div&gt;&lt;div style=&quot;color: rgb(212 , 212 , 212) ; font-family: &amp;#34;droid sans mono&amp;#34; , &amp;#34;monospace&amp;#34; , monospace ; line-height: 19px&quot;&gt;&lt;span style=&quot;color: #4ec9b0&quot;&gt;PythonExpression&lt;/span&gt;([&lt;span style=&quot;color: #ce9178&quot;&gt;'not '&lt;/span&gt;, &lt;span style=&quot;color: #9cdcfe&quot;&gt;slam&lt;/span&gt;]),&lt;/div&gt;&lt;/div&gt;&lt;div style=&quot;font-family: &amp;#34;droid sans mono&amp;#34; , &amp;#34;monospace&amp;#34; , monospace ; line-height: 19px&quot;&gt;&lt;span style=&quot;color: rgb(206 , 145 , 120)&quot;&gt;'namespace'&lt;/span&gt;&lt;span style=&quot;color: rgb(206 , 145 , 120)&quot;&gt;&lt;br&gt;&lt;/span&gt;&lt;/div&gt;&lt;div style=&quot;font-family: &amp;#34;droid sans mono&amp;#34; , &amp;#34;monospace&amp;#34; , monospace ; line-height: 19px&quot;&gt;&lt;span style=&quot;color: rgb(206 , 145 , 120)&quot;&gt;'map'&lt;/span&gt;&lt;/div&gt;&lt;div style=&quot;font-family: &amp;#34;droid sans mono&amp;#34; , &amp;#34;monospace&amp;#34; , monospace ; line-height: 19px&quot;&gt;&lt;span style=&quot;color: rgb(206 , 145 , 120)&quot;&gt;'use_sim_time'&lt;/span&gt;&lt;/div&gt;&lt;div style=&quot;font-family: &amp;#34;droid sans mono&amp;#34; , &amp;#34;monospace&amp;#34; , monospace ; line-height: 19px&quot;&gt;&lt;span style=&quot;color: rgb(206 , 145 , 120)&quot;&gt;'autostart'&lt;/span&gt;&lt;/div&gt;&lt;div style=&quot;font-family: &amp;#34;droid sans mono&amp;#34; , &amp;#34;monospace&amp;#34; , monospace ; line-height: 19px&quot;&gt;&lt;div style=&quot;font-family: &amp;#34;droid sans mono&amp;#34; , &amp;#34;monospace&amp;#34; , monospace ; line-height: 19px&quot;&gt;&lt;div&gt;                          &lt;span style=&quot;color: rgb(206 , 145 , 120)&quot;&gt;'params_file'&lt;/span&gt;&lt;/div&gt;&lt;div&gt;&lt;span style=&quot;color: rgb(206 , 145 , 120)&quot;&gt;'&lt;/span&gt;&lt;span style=&quot;color: rgb(206 , 145 , 120) ; font-family: &amp;#34;droid sans mono&amp;#34; , &amp;#34;monospace&amp;#34; , monospace&quot;&gt;use_lifecycle_mgr&lt;/span&gt;&lt;span style=&quot;color: rgb(206 , 145 , 120)&quot;&gt;'&lt;/span&gt;&lt;/div&gt;&lt;div&gt;&lt;span style=&quot;color: rgb(206 , 145 , 120)&quot;&gt;}&lt;/span&gt;&lt;/div&gt;&lt;/div&gt;&lt;/div&gt;&lt;/div&gt;&lt;/div&gt;&lt;span style=&quot;color: rgb(156 , 220 , 254) ; font-family: &amp;#34;droid sans mono&amp;#34; , &amp;#34;monospace&amp;#34; , monospace ; background-color: rgb(30 , 30 , 30)&quot;&gt;&lt;br&gt;&lt;br&gt;&lt;/span&gt;" style="text;html=1;strokeColor=default;fillColor=none;spacing=5;spacingTop=-20;whiteSpace=wrap;overflow=hidden;rounded=0;shadow=0;fontSize=14;dashed=1;" vertex="1" parent="1">
                    <mxGeometry x="1060" y="730" width="210" height="260" as="geometry"/>
                </mxCell>
                <mxCell id="87" style="edgeStyle=none;html=1;entryX=0.5;entryY=0;entryDx=0;entryDy=0;fontSize=20;" edge="1" parent="1" target="81">
                    <mxGeometry relative="1" as="geometry">
                        <mxPoint x="1413" y="932" as="sourcePoint"/>
                    </mxGeometry>
                </mxCell>
                <mxCell id="88" style="edgeStyle=none;html=1;entryX=0.5;entryY=0;entryDx=0;entryDy=0;fontSize=20;exitX=0.5;exitY=1;exitDx=0;exitDy=0;" edge="1" parent="1" source="54" target="82">
                    <mxGeometry relative="1" as="geometry"/>
                </mxCell>
                <mxCell id="89" style="edgeStyle=none;html=1;entryX=0.5;entryY=0;entryDx=0;entryDy=0;fontSize=20;exitX=0.5;exitY=1;exitDx=0;exitDy=0;" edge="1" parent="1" source="54" target="84">
                    <mxGeometry relative="1" as="geometry"/>
                </mxCell>
                <mxCell id="90" style="edgeStyle=none;html=1;entryX=0.5;entryY=0;entryDx=0;entryDy=0;fontSize=20;exitX=0.5;exitY=1;exitDx=0;exitDy=0;" edge="1" parent="1" source="54" target="83">
                    <mxGeometry relative="1" as="geometry"/>
                </mxCell>
                <mxCell id="91" style="edgeStyle=none;html=1;entryX=0.5;entryY=0;entryDx=0;entryDy=0;fontSize=20;exitX=0.5;exitY=1;exitDx=0;exitDy=0;" edge="1" parent="1" source="54" target="85">
                    <mxGeometry relative="1" as="geometry"/>
                </mxCell>
                <mxCell id="92" style="edgeStyle=none;html=1;exitX=0.5;exitY=1;exitDx=0;exitDy=0;entryX=0.5;entryY=0;entryDx=0;entryDy=0;fontSize=20;" edge="1" parent="1" source="54" target="78">
                    <mxGeometry relative="1" as="geometry"/>
                </mxCell>
                <mxCell id="54" value="&lt;h1&gt;&lt;span style=&quot;font-size: 20px&quot;&gt;launch&lt;/span&gt;&lt;/h1&gt;&lt;div style=&quot;background-color: rgb(30 , 30 , 30) ; font-family: &amp;#34;droid sans mono&amp;#34; , &amp;#34;monospace&amp;#34; , monospace ; line-height: 19px&quot;&gt;&lt;div style=&quot;color: rgb(212 , 212 , 212) ; font-family: &amp;#34;droid sans mono&amp;#34; , &amp;#34;monospace&amp;#34; , monospace ; line-height: 19px&quot;&gt;&lt;span style=&quot;color: rgb(206 , 145 , 120) ; font-family: &amp;#34;droid sans mono&amp;#34; , &amp;#34;monospace&amp;#34; , monospace&quot;&gt;navigation_launch&lt;/span&gt;&lt;span style=&quot;color: #ce9178&quot;&gt;.py&lt;/span&gt;&lt;/div&gt;&lt;div style=&quot;font-family: &amp;#34;droid sans mono&amp;#34; , &amp;#34;monospace&amp;#34; , monospace ; line-height: 19px&quot;&gt;&lt;div style=&quot;font-family: &amp;#34;droid sans mono&amp;#34; , &amp;#34;monospace&amp;#34; , monospace ; line-height: 19px&quot;&gt;&lt;font color=&quot;#ce9178&quot;&gt;{&lt;/font&gt;&lt;/div&gt;&lt;div style=&quot;font-family: &amp;#34;droid sans mono&amp;#34; , &amp;#34;monospace&amp;#34; , monospace ; line-height: 19px&quot;&gt;&lt;span style=&quot;color: rgb(206 , 145 , 120)&quot;&gt;'namespace'&lt;/span&gt;&lt;span style=&quot;color: rgb(206 , 145 , 120)&quot;&gt;&lt;br&gt;&lt;/span&gt;&lt;/div&gt;&lt;div style=&quot;font-family: &amp;#34;droid sans mono&amp;#34; , &amp;#34;monospace&amp;#34; , monospace ; line-height: 19px&quot;&gt;&lt;span style=&quot;color: rgb(206 , 145 , 120)&quot;&gt;'use_sim_time'&lt;/span&gt;&lt;/div&gt;&lt;div style=&quot;font-family: &amp;#34;droid sans mono&amp;#34; , &amp;#34;monospace&amp;#34; , monospace ; line-height: 19px&quot;&gt;&lt;span style=&quot;color: rgb(206 , 145 , 120)&quot;&gt;'autostart'&lt;/span&gt;&lt;/div&gt;&lt;div style=&quot;font-family: &amp;#34;droid sans mono&amp;#34; , &amp;#34;monospace&amp;#34; , monospace ; line-height: 19px&quot;&gt;&lt;div style=&quot;font-family: &amp;#34;droid sans mono&amp;#34; , &amp;#34;monospace&amp;#34; , monospace ; line-height: 19px&quot;&gt;&lt;div&gt;                          &lt;span style=&quot;color: rgb(206 , 145 , 120)&quot;&gt;'params_file'&lt;/span&gt;&lt;/div&gt;&lt;div&gt;&lt;span style=&quot;color: rgb(206 , 145 , 120)&quot;&gt;'&lt;/span&gt;&lt;span style=&quot;color: rgb(206 , 145 , 120) ; font-family: &amp;#34;droid sans mono&amp;#34; , &amp;#34;monospace&amp;#34; , monospace&quot;&gt;default_bt_xml_filename&lt;/span&gt;&lt;span style=&quot;color: rgb(206 , 145 , 120)&quot;&gt;'&lt;/span&gt;&lt;/div&gt;&lt;div&gt;&lt;span style=&quot;color: rgb(206 , 145 , 120)&quot;&gt;'&lt;/span&gt;&lt;span style=&quot;color: rgb(206 , 145 , 120) ; font-family: &amp;#34;droid sans mono&amp;#34; , &amp;#34;monospace&amp;#34; , monospace&quot;&gt;use_lifecycle_mgr&lt;/span&gt;&lt;span style=&quot;color: rgb(206 , 145 , 120)&quot;&gt;'&lt;/span&gt;&lt;/div&gt;&lt;div&gt;&lt;span style=&quot;color: rgb(206 , 145 , 120)&quot;&gt;'&lt;/span&gt;&lt;span style=&quot;color: rgb(206 , 145 , 120) ; font-family: &amp;#34;droid sans mono&amp;#34; , &amp;#34;monospace&amp;#34; , monospace&quot;&gt;map_subscribe_transient_local&lt;/span&gt;&lt;span style=&quot;color: rgb(206 , 145 , 120)&quot;&gt;'&lt;/span&gt;&lt;/div&gt;&lt;div&gt;&lt;span style=&quot;color: rgb(206 , 145 , 120)&quot;&gt;}&lt;/span&gt;&lt;/div&gt;&lt;/div&gt;&lt;/div&gt;&lt;/div&gt;&lt;/div&gt;&lt;span style=&quot;color: rgb(156 , 220 , 254) ; font-family: &amp;#34;droid sans mono&amp;#34; , &amp;#34;monospace&amp;#34; , monospace ; background-color: rgb(30 , 30 , 30)&quot;&gt;&lt;br&gt;&lt;br&gt;&lt;/span&gt;" style="text;html=1;strokeColor=default;fillColor=none;spacing=5;spacingTop=-20;whiteSpace=wrap;overflow=hidden;rounded=0;shadow=0;fontSize=14;dashed=1;" vertex="1" parent="1">
                    <mxGeometry x="1280" y="680" width="280" height="250" as="geometry"/>
                </mxCell>
                <mxCell id="60" style="edgeStyle=none;html=1;entryX=1;entryY=0.5;entryDx=0;entryDy=0;fontSize=20;" edge="1" parent="1" source="55" target="39">
                    <mxGeometry relative="1" as="geometry"/>
                </mxCell>
                <mxCell id="55" value="&lt;div style=&quot;color: rgb(212 , 212 , 212) ; background-color: rgb(30 , 30 , 30) ; font-family: &amp;#34;droid sans mono&amp;#34; , &amp;#34;monospace&amp;#34; , monospace ; font-weight: normal ; font-size: 14px ; line-height: 19px&quot;&gt;&lt;div&gt;&lt;span style=&quot;color: #ce9178&quot;&gt;use_lifecycle_mgr = False&lt;/span&gt;&lt;/div&gt;&lt;div&gt;&lt;div style=&quot;font-family: &amp;#34;droid sans mono&amp;#34; , &amp;#34;monospace&amp;#34; , monospace ; line-height: 19px&quot;&gt;&lt;span style=&quot;color: #ce9178&quot;&gt;map_subscribe_transient_local = True&lt;/span&gt;&lt;/div&gt;&lt;/div&gt;&lt;/div&gt;" style="text;whiteSpace=wrap;html=1;fontSize=20;" vertex="1" parent="1">
                    <mxGeometry x="1140" y="500" width="310" height="50" as="geometry"/>
                </mxCell>
                <mxCell id="61" value="&lt;h1&gt;&lt;span style=&quot;font-size: 20px&quot;&gt;Node&lt;/span&gt;&lt;/h1&gt;&lt;div style=&quot;color: rgb(212 , 212 , 212) ; background-color: rgb(30 , 30 , 30) ; font-family: &amp;#34;droid sans mono&amp;#34; , &amp;#34;monospace&amp;#34; , monospace ; line-height: 19px&quot;&gt;&lt;div style=&quot;font-family: &amp;#34;droid sans mono&amp;#34; , &amp;#34;monospace&amp;#34; , monospace ; line-height: 19px&quot;&gt;&lt;div style=&quot;font-family: &amp;#34;droid sans mono&amp;#34; , &amp;#34;monospace&amp;#34; , monospace ; line-height: 19px&quot;&gt;&lt;span style=&quot;color: #ce9178&quot;&gt;rviz2&lt;/span&gt;&lt;/div&gt;&lt;/div&gt;&lt;div style=&quot;font-family: &amp;#34;droid sans mono&amp;#34; , &amp;#34;monospace&amp;#34; , monospace ; line-height: 19px&quot;&gt;&lt;span style=&quot;color: #ce9178&quot;&gt;{&lt;/span&gt;&lt;/div&gt;&lt;/div&gt;&lt;div style=&quot;background-color: rgb(30 , 30 , 30) ; font-family: &amp;#34;droid sans mono&amp;#34; , &amp;#34;monospace&amp;#34; , monospace ; line-height: 19px&quot;&gt;&lt;div style=&quot;color: rgb(212 , 212 , 212)&quot;&gt;&lt;span style=&quot;color: rgb(156 , 220 , 254)&quot;&gt;arguments =&amp;nbsp;&lt;/span&gt;&lt;span style=&quot;color: rgb(156 , 220 , 254)&quot;&gt;rviz_config_file&lt;/span&gt;&lt;br&gt;&lt;/div&gt;&lt;div style=&quot;color: rgb(212 , 212 , 212)&quot;&gt;}&lt;/div&gt;&lt;/div&gt;" style="text;html=1;strokeColor=default;fillColor=none;spacing=5;spacingTop=-20;whiteSpace=wrap;overflow=hidden;rounded=0;shadow=0;fontSize=14;dashed=1;" vertex="1" parent="1">
                    <mxGeometry x="517" y="740" width="253" height="140" as="geometry"/>
                </mxCell>
                <mxCell id="65" style="edgeStyle=none;html=1;entryX=1;entryY=0.25;entryDx=0;entryDy=0;fontSize=20;exitX=0;exitY=0.5;exitDx=0;exitDy=0;" edge="1" parent="1" source="63" target="54">
                    <mxGeometry relative="1" as="geometry"/>
                </mxCell>
                <mxCell id="63" value="&lt;div style=&quot;color: rgb(212 , 212 , 212) ; background-color: rgb(30 , 30 , 30) ; font-family: &amp;#34;droid sans mono&amp;#34; , &amp;#34;monospace&amp;#34; , monospace ; font-weight: normal ; font-size: 14px ; line-height: 19px&quot;&gt;&lt;div&gt;&lt;span style=&quot;color: #9cdcfe&quot;&gt;lifecycle_nodes&lt;/span&gt;&lt;span style=&quot;color: #d4d4d4&quot;&gt; =&amp;nbsp;&lt;/span&gt;&lt;/div&gt;&lt;div&gt;&lt;span style=&quot;color: #d4d4d4&quot;&gt;[&lt;/span&gt;&lt;/div&gt;&lt;div&gt;&lt;span style=&quot;color: #ce9178&quot;&gt;'controller_server'&lt;/span&gt;&lt;span style=&quot;color: #d4d4d4&quot;&gt;,&lt;/span&gt;&lt;/div&gt;&lt;div&gt;&lt;span style=&quot;color: #d4d4d4&quot;&gt;                       &lt;/span&gt;&lt;span style=&quot;color: #ce9178&quot;&gt;'planner_server'&lt;/span&gt;&lt;span style=&quot;color: #d4d4d4&quot;&gt;,&lt;/span&gt;&lt;/div&gt;&lt;div&gt;&lt;span style=&quot;color: #d4d4d4&quot;&gt;                       &lt;/span&gt;&lt;span style=&quot;color: #ce9178&quot;&gt;'recoveries_server'&lt;/span&gt;&lt;span style=&quot;color: #d4d4d4&quot;&gt;,&lt;/span&gt;&lt;/div&gt;&lt;div&gt;&lt;span style=&quot;color: #d4d4d4&quot;&gt;                       &lt;/span&gt;&lt;span style=&quot;color: #ce9178&quot;&gt;'bt_navigator'&lt;/span&gt;&lt;span style=&quot;color: #d4d4d4&quot;&gt;,&lt;/span&gt;&lt;/div&gt;&lt;div&gt;&lt;span style=&quot;color: #d4d4d4&quot;&gt;                       &lt;/span&gt;&lt;span style=&quot;color: #ce9178&quot;&gt;'waypoint_follower'&lt;/span&gt;&lt;/div&gt;&lt;div&gt;&lt;span style=&quot;color: #d4d4d4&quot;&gt;]&lt;/span&gt;&lt;/div&gt;&lt;/div&gt;" style="text;whiteSpace=wrap;html=1;fontSize=20;" vertex="1" parent="1">
                    <mxGeometry x="1654" y="440" width="180" height="170" as="geometry"/>
                </mxCell>
                <mxCell id="77" style="edgeStyle=none;html=1;entryX=1;entryY=0.75;entryDx=0;entryDy=0;fontSize=20;" edge="1" parent="1" source="64" target="54">
                    <mxGeometry relative="1" as="geometry"/>
                </mxCell>
                <mxCell id="64" value="&lt;div style=&quot;color: rgb(212 , 212 , 212) ; background-color: rgb(30 , 30 , 30) ; font-family: &amp;#34;droid sans mono&amp;#34; , &amp;#34;monospace&amp;#34; , monospace ; font-weight: normal ; font-size: 14px ; line-height: 19px&quot;&gt;&lt;div&gt;&lt;span style=&quot;color: #9cdcfe&quot;&gt;configured_params&lt;/span&gt;&lt;span style=&quot;color: #d4d4d4&quot;&gt; =&amp;nbsp;&lt;/span&gt;&lt;/div&gt;&lt;div&gt;&lt;span style=&quot;color: #4ec9b0&quot;&gt;RewrittenYaml&lt;/span&gt;&lt;/div&gt;&lt;div&gt;&lt;span style=&quot;color: #d4d4d4&quot;&gt;(&lt;/span&gt;&lt;/div&gt;&lt;div&gt;&lt;span style=&quot;color: #d4d4d4&quot;&gt;        &lt;/span&gt;&lt;span style=&quot;color: #9cdcfe&quot;&gt;source_file&lt;/span&gt;&lt;span style=&quot;color: #d4d4d4&quot;&gt;=&lt;/span&gt;&lt;span style=&quot;color: #9cdcfe&quot;&gt;params_file&lt;/span&gt;&lt;span style=&quot;color: #d4d4d4&quot;&gt;,&lt;/span&gt;&lt;/div&gt;&lt;div&gt;&lt;span style=&quot;color: #d4d4d4&quot;&gt;        &lt;/span&gt;&lt;span style=&quot;color: #9cdcfe&quot;&gt;root_key&lt;/span&gt;&lt;span style=&quot;color: #d4d4d4&quot;&gt;=&lt;/span&gt;&lt;span style=&quot;color: #9cdcfe&quot;&gt;namespace&lt;/span&gt;&lt;span style=&quot;color: #d4d4d4&quot;&gt;,&lt;/span&gt;&lt;/div&gt;&lt;div&gt;&lt;span style=&quot;color: #d4d4d4&quot;&gt;        &lt;/span&gt;&lt;span style=&quot;color: #9cdcfe&quot;&gt;param_rewrites&lt;/span&gt;&lt;span style=&quot;color: #d4d4d4&quot;&gt;=&lt;/span&gt;&lt;span style=&quot;color: #9cdcfe&quot;&gt;param_substitutions&lt;/span&gt;&lt;span style=&quot;color: #d4d4d4&quot;&gt;,&lt;/span&gt;&lt;/div&gt;&lt;div&gt;&lt;span style=&quot;color: #d4d4d4&quot;&gt;        &lt;/span&gt;&lt;span style=&quot;color: #9cdcfe&quot;&gt;convert_types&lt;/span&gt;&lt;span style=&quot;color: #d4d4d4&quot;&gt;=&lt;/span&gt;&lt;span style=&quot;color: #569cd6&quot;&gt;True&lt;/span&gt;&lt;/div&gt;&lt;div&gt;&lt;span style=&quot;color: #d4d4d4&quot;&gt;)&lt;/span&gt;&lt;/div&gt;&lt;/div&gt;" style="text;whiteSpace=wrap;html=1;fontSize=20;" vertex="1" parent="1">
                    <mxGeometry x="1654" y="710" width="300" height="170" as="geometry"/>
                </mxCell>
                <mxCell id="68" style="edgeStyle=none;html=1;fontSize=20;exitX=0;exitY=0.5;exitDx=0;exitDy=0;entryX=1;entryY=0.5;entryDx=0;entryDy=0;" edge="1" parent="1" source="67" target="54">
                    <mxGeometry relative="1" as="geometry"/>
                </mxCell>
                <mxCell id="67" value="&lt;div style=&quot;color: rgb(212, 212, 212); background-color: rgb(30, 30, 30); font-family: &amp;quot;droid sans mono&amp;quot;, &amp;quot;monospace&amp;quot;, monospace; font-weight: normal; font-size: 14px; line-height: 19px;&quot;&gt;&lt;div&gt;&lt;span style=&quot;color: #9cdcfe&quot;&gt;param_substitutions&lt;/span&gt;&lt;span style=&quot;color: #d4d4d4&quot;&gt; = {&lt;/span&gt;&lt;/div&gt;&lt;div&gt;&lt;span style=&quot;color: #d4d4d4&quot;&gt;        &lt;/span&gt;&lt;span style=&quot;color: #ce9178&quot;&gt;'use_sim_time'&lt;/span&gt;&lt;span style=&quot;color: #d4d4d4&quot;&gt;: &lt;/span&gt;&lt;span style=&quot;color: #9cdcfe&quot;&gt;use_sim_time&lt;/span&gt;&lt;span style=&quot;color: #d4d4d4&quot;&gt;,&lt;/span&gt;&lt;/div&gt;&lt;div&gt;&lt;span style=&quot;color: #d4d4d4&quot;&gt;        &lt;/span&gt;&lt;span style=&quot;color: #ce9178&quot;&gt;'default_bt_xml_filename'&lt;/span&gt;&lt;span style=&quot;color: #d4d4d4&quot;&gt;: &lt;/span&gt;&lt;span style=&quot;color: #9cdcfe&quot;&gt;default_bt_xml_filename&lt;/span&gt;&lt;span style=&quot;color: #d4d4d4&quot;&gt;,&lt;/span&gt;&lt;/div&gt;&lt;div&gt;&lt;span style=&quot;color: #d4d4d4&quot;&gt;        &lt;/span&gt;&lt;span style=&quot;color: #ce9178&quot;&gt;'autostart'&lt;/span&gt;&lt;span style=&quot;color: #d4d4d4&quot;&gt;: &lt;/span&gt;&lt;span style=&quot;color: #9cdcfe&quot;&gt;autostart&lt;/span&gt;&lt;span style=&quot;color: #d4d4d4&quot;&gt;,&lt;/span&gt;&lt;/div&gt;&lt;div&gt;&lt;span style=&quot;color: #d4d4d4&quot;&gt;        &lt;/span&gt;&lt;span style=&quot;color: #ce9178&quot;&gt;'map_subscribe_transient_local'&lt;/span&gt;&lt;span style=&quot;color: #d4d4d4&quot;&gt;: &lt;/span&gt;&lt;span style=&quot;color: #9cdcfe&quot;&gt;map_subscribe_transient_local&lt;/span&gt;&lt;span style=&quot;color: #d4d4d4&quot;&gt;}&lt;/span&gt;&lt;/div&gt;&lt;/div&gt;" style="text;whiteSpace=wrap;html=1;fontSize=20;" vertex="1" parent="1">
                    <mxGeometry x="1654" y="600" width="550" height="110" as="geometry"/>
                </mxCell>
                <mxCell id="70" style="edgeStyle=none;html=1;entryX=0;entryY=0.5;entryDx=0;entryDy=0;fontSize=20;" edge="1" parent="1" source="69" target="52">
                    <mxGeometry relative="1" as="geometry"/>
                </mxCell>
                <mxCell id="69" value="&lt;div style=&quot;color: rgb(212, 212, 212); background-color: rgb(30, 30, 30); font-family: &amp;quot;droid sans mono&amp;quot;, &amp;quot;monospace&amp;quot;, monospace; font-weight: normal; font-size: 14px; line-height: 19px;&quot;&gt;&lt;div&gt;&lt;span style=&quot;color: #9cdcfe&quot;&gt;param_substitutions&lt;/span&gt;&lt;span style=&quot;color: #d4d4d4&quot;&gt; = {&lt;/span&gt;&lt;/div&gt;&lt;div&gt;&lt;span style=&quot;color: #d4d4d4&quot;&gt;        &lt;/span&gt;&lt;span style=&quot;color: #ce9178&quot;&gt;'use_sim_time'&lt;/span&gt;&lt;span style=&quot;color: #d4d4d4&quot;&gt;: &lt;/span&gt;&lt;span style=&quot;color: #9cdcfe&quot;&gt;use_sim_time&lt;/span&gt;&lt;span style=&quot;color: #d4d4d4&quot;&gt;}&lt;/span&gt;&lt;/div&gt;&lt;br&gt;&lt;div&gt;&lt;span style=&quot;color: #d4d4d4&quot;&gt;    &lt;/span&gt;&lt;span style=&quot;color: #9cdcfe&quot;&gt;configured_params&lt;/span&gt;&lt;span style=&quot;color: #d4d4d4&quot;&gt; = &lt;/span&gt;&lt;span style=&quot;color: #4ec9b0&quot;&gt;RewrittenYaml&lt;/span&gt;&lt;span style=&quot;color: #d4d4d4&quot;&gt;(&lt;/span&gt;&lt;/div&gt;&lt;div&gt;&lt;span style=&quot;color: #d4d4d4&quot;&gt;        &lt;/span&gt;&lt;span style=&quot;color: #9cdcfe&quot;&gt;source_file&lt;/span&gt;&lt;span style=&quot;color: #d4d4d4&quot;&gt;=&lt;/span&gt;&lt;span style=&quot;color: #9cdcfe&quot;&gt;params_file&lt;/span&gt;&lt;span style=&quot;color: #d4d4d4&quot;&gt;,&lt;/span&gt;&lt;/div&gt;&lt;div&gt;&lt;span style=&quot;color: #d4d4d4&quot;&gt;        &lt;/span&gt;&lt;span style=&quot;color: #9cdcfe&quot;&gt;root_key&lt;/span&gt;&lt;span style=&quot;color: #d4d4d4&quot;&gt;=&lt;/span&gt;&lt;span style=&quot;color: #9cdcfe&quot;&gt;namespace&lt;/span&gt;&lt;span style=&quot;color: #d4d4d4&quot;&gt;,&lt;/span&gt;&lt;/div&gt;&lt;div&gt;&lt;span style=&quot;color: #d4d4d4&quot;&gt;        &lt;/span&gt;&lt;span style=&quot;color: #9cdcfe&quot;&gt;param_rewrites&lt;/span&gt;&lt;span style=&quot;color: #d4d4d4&quot;&gt;=&lt;/span&gt;&lt;span style=&quot;color: #9cdcfe&quot;&gt;param_substitutions&lt;/span&gt;&lt;span style=&quot;color: #d4d4d4&quot;&gt;,&lt;/span&gt;&lt;/div&gt;&lt;div&gt;&lt;span style=&quot;color: #d4d4d4&quot;&gt;        &lt;/span&gt;&lt;span style=&quot;color: #9cdcfe&quot;&gt;convert_types&lt;/span&gt;&lt;span style=&quot;color: #d4d4d4&quot;&gt;=&lt;/span&gt;&lt;span style=&quot;color: #569cd6&quot;&gt;True&lt;/span&gt;&lt;span style=&quot;color: #d4d4d4&quot;&gt;)&lt;/span&gt;&lt;/div&gt;&lt;/div&gt;" style="text;whiteSpace=wrap;html=1;fontSize=20;" vertex="1" parent="1">
                    <mxGeometry x="490" y="920" width="300" height="170" as="geometry"/>
                </mxCell>
                <mxCell id="71" value="&lt;h1&gt;&lt;span style=&quot;font-size: 20px&quot;&gt;Node&lt;/span&gt;&lt;/h1&gt;&lt;div style=&quot;color: rgb(212 , 212 , 212) ; background-color: rgb(30 , 30 , 30) ; font-family: &amp;#34;droid sans mono&amp;#34; , &amp;#34;monospace&amp;#34; , monospace ; line-height: 19px&quot;&gt;&lt;div style=&quot;font-family: &amp;#34;droid sans mono&amp;#34; , &amp;#34;monospace&amp;#34; , monospace ; line-height: 19px&quot;&gt;&lt;div style=&quot;font-family: &amp;#34;droid sans mono&amp;#34; , &amp;#34;monospace&amp;#34; , monospace ; line-height: 19px&quot;&gt;&lt;div style=&quot;font-family: &amp;#34;droid sans mono&amp;#34; , &amp;#34;monospace&amp;#34; , monospace ; line-height: 19px&quot;&gt;&lt;span style=&quot;color: #ce9178&quot;&gt;nav2_map_server&lt;/span&gt;&lt;/div&gt;&lt;/div&gt;&lt;/div&gt;&lt;div style=&quot;font-family: &amp;#34;droid sans mono&amp;#34; , &amp;#34;monospace&amp;#34; , monospace ; line-height: 19px&quot;&gt;&lt;span style=&quot;color: #ce9178&quot;&gt;{&lt;/span&gt;&lt;/div&gt;&lt;/div&gt;&lt;div style=&quot;background-color: rgb(30 , 30 , 30) ; font-family: &amp;#34;droid sans mono&amp;#34; , &amp;#34;monospace&amp;#34; , monospace ; line-height: 19px&quot;&gt;&lt;div style=&quot;color: rgb(212 , 212 , 212)&quot;&gt;&lt;span style=&quot;color: rgb(156 , 220 , 254)&quot;&gt;configured_params&lt;/span&gt;&lt;br&gt;&lt;/div&gt;&lt;div style=&quot;color: rgb(212 , 212 , 212)&quot;&gt;}&lt;/div&gt;&lt;/div&gt;" style="text;html=1;strokeColor=default;fillColor=none;spacing=5;spacingTop=-20;whiteSpace=wrap;overflow=hidden;rounded=0;shadow=0;fontSize=14;dashed=1;" vertex="1" parent="1">
                    <mxGeometry x="878" y="1169" width="163" height="140" as="geometry"/>
                </mxCell>
                <mxCell id="73" value="&lt;h1&gt;&lt;span style=&quot;font-size: 20px&quot;&gt;Node&lt;/span&gt;&lt;/h1&gt;&lt;div style=&quot;color: rgb(212 , 212 , 212) ; background-color: rgb(30 , 30 , 30) ; font-family: &amp;#34;droid sans mono&amp;#34; , &amp;#34;monospace&amp;#34; , monospace ; line-height: 19px&quot;&gt;&lt;div style=&quot;font-family: &amp;#34;droid sans mono&amp;#34; , &amp;#34;monospace&amp;#34; , monospace ; line-height: 19px&quot;&gt;&lt;div style=&quot;font-family: &amp;#34;droid sans mono&amp;#34; , &amp;#34;monospace&amp;#34; , monospace ; line-height: 19px&quot;&gt;&lt;div style=&quot;font-family: &amp;#34;droid sans mono&amp;#34; , &amp;#34;monospace&amp;#34; , monospace ; line-height: 19px&quot;&gt;&lt;div style=&quot;font-family: &amp;#34;droid sans mono&amp;#34; , &amp;#34;monospace&amp;#34; , monospace ; line-height: 19px&quot;&gt;&lt;span style=&quot;color: #ce9178&quot;&gt;nav2_lifecycle_manager&lt;/span&gt;&lt;/div&gt;&lt;/div&gt;&lt;/div&gt;&lt;/div&gt;&lt;div style=&quot;font-family: &amp;#34;droid sans mono&amp;#34; , &amp;#34;monospace&amp;#34; , monospace ; line-height: 19px&quot;&gt;&lt;span style=&quot;color: #ce9178&quot;&gt;{&lt;/span&gt;&lt;/div&gt;&lt;/div&gt;&lt;div style=&quot;background-color: rgb(30 , 30 , 30) ; font-family: &amp;#34;droid sans mono&amp;#34; , &amp;#34;monospace&amp;#34; , monospace ; line-height: 19px&quot;&gt;&lt;div style=&quot;color: rgb(212 , 212 , 212)&quot;&gt;&lt;div style=&quot;font-family: &amp;#34;droid sans mono&amp;#34; , &amp;#34;monospace&amp;#34; , monospace ; line-height: 19px&quot;&gt;&lt;span style=&quot;color: #9cdcfe&quot;&gt;lifecycle_nodes = '&lt;/span&gt;&lt;span style=&quot;color: rgb(206 , 145 , 120)&quot;&gt;map_saver&lt;/span&gt;&lt;span style=&quot;color: rgb(156 , 220 , 254)&quot;&gt;'&lt;/span&gt;&lt;/div&gt;&lt;/div&gt;&lt;div style=&quot;color: rgb(212 , 212 , 212)&quot;&gt;}&lt;/div&gt;&lt;/div&gt;" style="text;html=1;strokeColor=default;fillColor=none;spacing=5;spacingTop=-20;whiteSpace=wrap;overflow=hidden;rounded=0;shadow=0;fontSize=14;dashed=1;" vertex="1" parent="1">
                    <mxGeometry x="1060" y="1169" width="200" height="160" as="geometry"/>
                </mxCell>
                <mxCell id="75" value="&lt;h1&gt;&lt;span style=&quot;font-size: 20px&quot;&gt;launch&lt;/span&gt;&lt;/h1&gt;&lt;div style=&quot;background-color: rgb(30 , 30 , 30) ; font-family: &amp;#34;droid sans mono&amp;#34; , &amp;#34;monospace&amp;#34; , monospace ; line-height: 19px&quot;&gt;&lt;div style=&quot;color: rgb(212 , 212 , 212) ; font-family: &amp;#34;droid sans mono&amp;#34; , &amp;#34;monospace&amp;#34; , monospace ; line-height: 19px&quot;&gt;&lt;span style=&quot;color: rgb(206 , 145 , 120) ; font-family: &amp;#34;droid sans mono&amp;#34; , &amp;#34;monospace&amp;#34; , monospace&quot;&gt;SLAM_Toolbox&lt;/span&gt;&lt;/div&gt;&lt;div style=&quot;color: rgb(212 , 212 , 212) ; font-family: &amp;#34;droid sans mono&amp;#34; , &amp;#34;monospace&amp;#34; , monospace ; line-height: 19px&quot;&gt;&lt;span style=&quot;color: rgb(206 , 145 , 120) ; font-family: &amp;#34;droid sans mono&amp;#34; , &amp;#34;monospace&amp;#34; , monospace&quot;&gt;online_sync_launch&lt;/span&gt;&lt;span style=&quot;color: #ce9178&quot;&gt;.py&lt;/span&gt;&lt;/div&gt;&lt;div style=&quot;font-family: &amp;#34;droid sans mono&amp;#34; , &amp;#34;monospace&amp;#34; , monospace ; line-height: 19px&quot;&gt;&lt;div style=&quot;font-family: &amp;#34;droid sans mono&amp;#34; , &amp;#34;monospace&amp;#34; , monospace ; line-height: 19px&quot;&gt;&lt;font color=&quot;#ce9178&quot;&gt;{&lt;/font&gt;&lt;/div&gt;&lt;div style=&quot;font-family: &amp;#34;droid sans mono&amp;#34; , &amp;#34;monospace&amp;#34; , monospace ; line-height: 19px&quot;&gt;&lt;div style=&quot;color: rgb(212 , 212 , 212) ; font-family: &amp;#34;droid sans mono&amp;#34; , &amp;#34;monospace&amp;#34; , monospace ; line-height: 19px&quot;&gt;&lt;span style=&quot;color: rgb(206 , 145 , 120)&quot;&gt;'use_sim_time'&lt;/span&gt;&lt;br&gt;&lt;/div&gt;&lt;/div&gt;&lt;div style=&quot;font-family: &amp;#34;droid sans mono&amp;#34; , &amp;#34;monospace&amp;#34; , monospace ; line-height: 19px&quot;&gt;&lt;span style=&quot;color: rgb(206 , 145 , 120)&quot;&gt;}&lt;/span&gt;&lt;/div&gt;&lt;/div&gt;&lt;/div&gt;&lt;span style=&quot;color: rgb(156 , 220 , 254) ; font-family: &amp;#34;droid sans mono&amp;#34; , &amp;#34;monospace&amp;#34; , monospace ; background-color: rgb(30 , 30 , 30)&quot;&gt;&lt;br&gt;&lt;br&gt;&lt;/span&gt;" style="text;html=1;strokeColor=default;fillColor=none;spacing=5;spacingTop=-20;whiteSpace=wrap;overflow=hidden;rounded=0;shadow=0;fontSize=14;dashed=1;" vertex="1" parent="1">
                    <mxGeometry x="665" y="1169" width="162" height="160" as="geometry"/>
                </mxCell>
                <mxCell id="78" value="&lt;h1&gt;&lt;span style=&quot;font-size: 20px&quot;&gt;Node&lt;/span&gt;&lt;/h1&gt;&lt;div style=&quot;color: rgb(212 , 212 , 212) ; background-color: rgb(30 , 30 , 30) ; font-family: &amp;#34;droid sans mono&amp;#34; , &amp;#34;monospace&amp;#34; , monospace ; line-height: 19px&quot;&gt;&lt;div style=&quot;font-family: &amp;#34;droid sans mono&amp;#34; , &amp;#34;monospace&amp;#34; , monospace ; line-height: 19px&quot;&gt;&lt;div style=&quot;font-family: &amp;#34;droid sans mono&amp;#34; , &amp;#34;monospace&amp;#34; , monospace ; line-height: 19px&quot;&gt;&lt;div style=&quot;font-family: &amp;#34;droid sans mono&amp;#34; , &amp;#34;monospace&amp;#34; , monospace ; line-height: 19px&quot;&gt;&lt;div style=&quot;font-family: &amp;#34;droid sans mono&amp;#34; , &amp;#34;monospace&amp;#34; , monospace ; line-height: 19px&quot;&gt;&lt;span style=&quot;color: #ce9178&quot;&gt;nav2_lifecycle_manager&lt;/span&gt;&lt;/div&gt;&lt;/div&gt;&lt;/div&gt;&lt;/div&gt;&lt;div style=&quot;font-family: &amp;#34;droid sans mono&amp;#34; , &amp;#34;monospace&amp;#34; , monospace ; line-height: 19px&quot;&gt;&lt;span style=&quot;color: #ce9178&quot;&gt;{&lt;/span&gt;&lt;/div&gt;&lt;div style=&quot;font-family: &amp;#34;droid sans mono&amp;#34; , &amp;#34;monospace&amp;#34; , monospace ; line-height: 19px&quot;&gt;&lt;span style=&quot;color: #ce9178&quot;&gt;'&lt;/span&gt;&lt;span style=&quot;color: rgb(206 , 145 , 120) ; font-family: &amp;#34;droid sans mono&amp;#34; , &amp;#34;monospace&amp;#34; , monospace&quot;&gt;use_sim_time&lt;/span&gt;&lt;span style=&quot;color: rgb(206 , 145 , 120)&quot;&gt;'&lt;/span&gt;&lt;/div&gt;&lt;div style=&quot;font-family: &amp;#34;droid sans mono&amp;#34; , &amp;#34;monospace&amp;#34; , monospace ; line-height: 19px&quot;&gt;&lt;span style=&quot;color: rgb(206 , 145 , 120)&quot;&gt;'&lt;/span&gt;&lt;span style=&quot;color: rgb(206 , 145 , 120) ; font-family: &amp;#34;droid sans mono&amp;#34; , &amp;#34;monospace&amp;#34; , monospace&quot;&gt;autostart&lt;/span&gt;&lt;span style=&quot;color: rgb(206 , 145 , 120)&quot;&gt;'&lt;/span&gt;&lt;/div&gt;&lt;/div&gt;&lt;div style=&quot;background-color: rgb(30 , 30 , 30) ; font-family: &amp;#34;droid sans mono&amp;#34; , &amp;#34;monospace&amp;#34; , monospace ; line-height: 19px&quot;&gt;&lt;div style=&quot;color: rgb(212 , 212 , 212)&quot;&gt;&lt;div style=&quot;font-family: &amp;#34;droid sans mono&amp;#34; , &amp;#34;monospace&amp;#34; , monospace ; line-height: 19px&quot;&gt;&lt;span style=&quot;color: #9cdcfe&quot;&gt;lifecycle_nodes&lt;/span&gt;&lt;/div&gt;&lt;/div&gt;&lt;div style=&quot;color: rgb(212 , 212 , 212)&quot;&gt;}&lt;/div&gt;&lt;/div&gt;" style="text;html=1;strokeColor=default;fillColor=none;spacing=5;spacingTop=-20;whiteSpace=wrap;overflow=hidden;rounded=0;shadow=0;fontSize=14;dashed=1;" vertex="1" parent="1">
                    <mxGeometry x="1684" y="1232" width="200" height="160" as="geometry"/>
                </mxCell>
                <mxCell id="80" style="edgeStyle=none;html=1;entryX=1.005;entryY=0.868;entryDx=0;entryDy=0;entryPerimeter=0;fontSize=20;" edge="1" parent="1" source="79" target="54">
                    <mxGeometry relative="1" as="geometry"/>
                </mxCell>
                <mxCell id="79" value="&lt;div style=&quot;color: rgb(212, 212, 212); background-color: rgb(30, 30, 30); font-family: &amp;quot;droid sans mono&amp;quot;, &amp;quot;monospace&amp;quot;, monospace; font-weight: normal; font-size: 14px; line-height: 19px;&quot;&gt;&lt;div&gt;&lt;span style=&quot;color: #9cdcfe&quot;&gt;remappings&lt;/span&gt;&lt;span style=&quot;color: #d4d4d4&quot;&gt; = [(&lt;/span&gt;&lt;span style=&quot;color: #ce9178&quot;&gt;'/tf'&lt;/span&gt;&lt;span style=&quot;color: #d4d4d4&quot;&gt;, &lt;/span&gt;&lt;span style=&quot;color: #ce9178&quot;&gt;'tf'&lt;/span&gt;&lt;span style=&quot;color: #d4d4d4&quot;&gt;),&lt;/span&gt;&lt;/div&gt;&lt;div&gt;&lt;span style=&quot;color: #d4d4d4&quot;&gt;                  (&lt;/span&gt;&lt;span style=&quot;color: #ce9178&quot;&gt;'/tf_static'&lt;/span&gt;&lt;span style=&quot;color: #d4d4d4&quot;&gt;, &lt;/span&gt;&lt;span style=&quot;color: #ce9178&quot;&gt;'tf_static'&lt;/span&gt;&lt;span style=&quot;color: #d4d4d4&quot;&gt;)]&lt;/span&gt;&lt;/div&gt;&lt;/div&gt;" style="text;whiteSpace=wrap;html=1;fontSize=20;" vertex="1" parent="1">
                    <mxGeometry x="1656" y="879.996666666667" width="256" height="52" as="geometry"/>
                </mxCell>
                <mxCell id="81" value="&lt;h1&gt;&lt;span style=&quot;font-size: 20px&quot;&gt;Node&lt;/span&gt;&lt;/h1&gt;&lt;div style=&quot;color: rgb(212 , 212 , 212) ; background-color: rgb(30 , 30 , 30) ; font-family: &amp;#34;droid sans mono&amp;#34; , &amp;#34;monospace&amp;#34; , monospace ; line-height: 19px&quot;&gt;&lt;div style=&quot;font-family: &amp;#34;droid sans mono&amp;#34; , &amp;#34;monospace&amp;#34; , monospace ; line-height: 19px&quot;&gt;&lt;div style=&quot;font-family: &amp;#34;droid sans mono&amp;#34; , &amp;#34;monospace&amp;#34; , monospace ; line-height: 19px&quot;&gt;&lt;div style=&quot;font-family: &amp;#34;droid sans mono&amp;#34; , &amp;#34;monospace&amp;#34; , monospace ; line-height: 19px&quot;&gt;&lt;div style=&quot;font-family: &amp;#34;droid sans mono&amp;#34; , &amp;#34;monospace&amp;#34; , monospace ; line-height: 19px&quot;&gt;&lt;span style=&quot;color: rgb(206 , 145 , 120) ; font-family: &amp;#34;droid sans mono&amp;#34; , &amp;#34;monospace&amp;#34; , monospace&quot;&gt;nav2_controller&lt;/span&gt;&lt;/div&gt;&lt;div style=&quot;font-family: &amp;#34;droid sans mono&amp;#34; , &amp;#34;monospace&amp;#34; , monospace ; line-height: 19px&quot;&gt;&lt;span style=&quot;color: rgb(206 , 145 , 120)&quot;&gt;{&lt;/span&gt;&lt;/div&gt;&lt;div style=&quot;font-family: &amp;#34;droid sans mono&amp;#34; , &amp;#34;monospace&amp;#34; , monospace ; line-height: 19px&quot;&gt;&lt;div style=&quot;font-family: &amp;#34;droid sans mono&amp;#34; , &amp;#34;monospace&amp;#34; , monospace ; line-height: 19px&quot;&gt;&lt;span style=&quot;color: #9cdcfe&quot;&gt;configured_params&lt;/span&gt;&lt;/div&gt;&lt;/div&gt;&lt;/div&gt;&lt;/div&gt;&lt;/div&gt;&lt;/div&gt;&lt;div style=&quot;background-color: rgb(30 , 30 , 30) ; font-family: &amp;#34;droid sans mono&amp;#34; , &amp;#34;monospace&amp;#34; , monospace ; line-height: 19px&quot;&gt;&lt;div&gt;&lt;div style=&quot;font-family: &amp;#34;droid sans mono&amp;#34; , &amp;#34;monospace&amp;#34; , monospace ; line-height: 19px&quot;&gt;&lt;font color=&quot;#9cdcfe&quot;&gt;remapping&lt;/font&gt;&lt;/div&gt;&lt;/div&gt;&lt;div style=&quot;color: rgb(212 , 212 , 212)&quot;&gt;}&lt;/div&gt;&lt;/div&gt;" style="text;html=1;strokeColor=default;fillColor=none;spacing=5;spacingTop=-20;whiteSpace=wrap;overflow=hidden;rounded=0;shadow=0;fontSize=14;dashed=1;" vertex="1" parent="1">
                    <mxGeometry x="1323" y="1009" width="150" height="160" as="geometry"/>
                </mxCell>
                <mxCell id="82" value="&lt;h1&gt;&lt;span style=&quot;font-size: 20px&quot;&gt;Node&lt;/span&gt;&lt;/h1&gt;&lt;div style=&quot;color: rgb(212 , 212 , 212) ; background-color: rgb(30 , 30 , 30) ; font-family: &amp;#34;droid sans mono&amp;#34; , &amp;#34;monospace&amp;#34; , monospace ; line-height: 19px&quot;&gt;&lt;div style=&quot;font-family: &amp;#34;droid sans mono&amp;#34; , &amp;#34;monospace&amp;#34; , monospace ; line-height: 19px&quot;&gt;&lt;div style=&quot;font-family: &amp;#34;droid sans mono&amp;#34; , &amp;#34;monospace&amp;#34; , monospace ; line-height: 19px&quot;&gt;&lt;div style=&quot;font-family: &amp;#34;droid sans mono&amp;#34; , &amp;#34;monospace&amp;#34; , monospace ; line-height: 19px&quot;&gt;&lt;div style=&quot;font-family: &amp;#34;droid sans mono&amp;#34; , &amp;#34;monospace&amp;#34; , monospace ; line-height: 19px&quot;&gt;&lt;div style=&quot;font-family: &amp;#34;droid sans mono&amp;#34; , &amp;#34;monospace&amp;#34; , monospace ; line-height: 19px&quot;&gt;&lt;span style=&quot;color: #ce9178&quot;&gt;nav2_planner&lt;/span&gt;&lt;/div&gt;&lt;/div&gt;&lt;div style=&quot;font-family: &amp;#34;droid sans mono&amp;#34; , &amp;#34;monospace&amp;#34; , monospace ; line-height: 19px&quot;&gt;&lt;span style=&quot;color: rgb(206 , 145 , 120)&quot;&gt;{&lt;/span&gt;&lt;/div&gt;&lt;div style=&quot;font-family: &amp;#34;droid sans mono&amp;#34; , &amp;#34;monospace&amp;#34; , monospace ; line-height: 19px&quot;&gt;&lt;div style=&quot;font-family: &amp;#34;droid sans mono&amp;#34; , &amp;#34;monospace&amp;#34; , monospace ; line-height: 19px&quot;&gt;&lt;span style=&quot;color: #9cdcfe&quot;&gt;configured_params&lt;/span&gt;&lt;/div&gt;&lt;/div&gt;&lt;/div&gt;&lt;/div&gt;&lt;/div&gt;&lt;/div&gt;&lt;div style=&quot;background-color: rgb(30 , 30 , 30) ; font-family: &amp;#34;droid sans mono&amp;#34; , &amp;#34;monospace&amp;#34; , monospace ; line-height: 19px&quot;&gt;&lt;div&gt;&lt;div style=&quot;font-family: &amp;#34;droid sans mono&amp;#34; , &amp;#34;monospace&amp;#34; , monospace ; line-height: 19px&quot;&gt;&lt;font color=&quot;#9cdcfe&quot;&gt;remapping&lt;/font&gt;&lt;/div&gt;&lt;/div&gt;&lt;div style=&quot;color: rgb(212 , 212 , 212)&quot;&gt;}&lt;/div&gt;&lt;/div&gt;" style="text;html=1;strokeColor=default;fillColor=none;spacing=5;spacingTop=-20;whiteSpace=wrap;overflow=hidden;rounded=0;shadow=0;fontSize=14;dashed=1;" vertex="1" parent="1">
                    <mxGeometry x="1485" y="1009" width="148" height="160" as="geometry"/>
                </mxCell>
                <mxCell id="83" value="&lt;h1&gt;&lt;span style=&quot;font-size: 20px&quot;&gt;Node&lt;/span&gt;&lt;/h1&gt;&lt;div style=&quot;color: rgb(212 , 212 , 212) ; background-color: rgb(30 , 30 , 30) ; font-family: &amp;#34;droid sans mono&amp;#34; , &amp;#34;monospace&amp;#34; , monospace ; line-height: 19px&quot;&gt;&lt;div style=&quot;font-family: &amp;#34;droid sans mono&amp;#34; , &amp;#34;monospace&amp;#34; , monospace ; line-height: 19px&quot;&gt;&lt;div style=&quot;font-family: &amp;#34;droid sans mono&amp;#34; , &amp;#34;monospace&amp;#34; , monospace ; line-height: 19px&quot;&gt;&lt;div style=&quot;font-family: &amp;#34;droid sans mono&amp;#34; , &amp;#34;monospace&amp;#34; , monospace ; line-height: 19px&quot;&gt;&lt;div style=&quot;font-family: &amp;#34;droid sans mono&amp;#34; , &amp;#34;monospace&amp;#34; , monospace ; line-height: 19px&quot;&gt;&lt;div style=&quot;font-family: &amp;#34;droid sans mono&amp;#34; , &amp;#34;monospace&amp;#34; , monospace ; line-height: 19px&quot;&gt;&lt;div style=&quot;font-family: &amp;#34;droid sans mono&amp;#34; , &amp;#34;monospace&amp;#34; , monospace ; line-height: 19px&quot;&gt;&lt;span style=&quot;color: #ce9178&quot;&gt;nav2_recoveries&lt;/span&gt;&lt;/div&gt;&lt;/div&gt;&lt;/div&gt;&lt;div style=&quot;font-family: &amp;#34;droid sans mono&amp;#34; , &amp;#34;monospace&amp;#34; , monospace ; line-height: 19px&quot;&gt;&lt;span style=&quot;color: rgb(206 , 145 , 120)&quot;&gt;{&lt;/span&gt;&lt;/div&gt;&lt;div style=&quot;font-family: &amp;#34;droid sans mono&amp;#34; , &amp;#34;monospace&amp;#34; , monospace ; line-height: 19px&quot;&gt;&lt;div style=&quot;font-family: &amp;#34;droid sans mono&amp;#34; , &amp;#34;monospace&amp;#34; , monospace ; line-height: 19px&quot;&gt;&lt;span style=&quot;color: #9cdcfe&quot;&gt;configured_params&lt;/span&gt;&lt;/div&gt;&lt;/div&gt;&lt;/div&gt;&lt;/div&gt;&lt;/div&gt;&lt;/div&gt;&lt;div style=&quot;background-color: rgb(30 , 30 , 30) ; font-family: &amp;#34;droid sans mono&amp;#34; , &amp;#34;monospace&amp;#34; , monospace ; line-height: 19px&quot;&gt;&lt;div&gt;&lt;div style=&quot;font-family: &amp;#34;droid sans mono&amp;#34; , &amp;#34;monospace&amp;#34; , monospace ; line-height: 19px&quot;&gt;&lt;font color=&quot;#9cdcfe&quot;&gt;remapping&lt;/font&gt;&lt;/div&gt;&lt;/div&gt;&lt;div style=&quot;color: rgb(212 , 212 , 212)&quot;&gt;}&lt;/div&gt;&lt;/div&gt;" style="text;html=1;strokeColor=default;fillColor=none;spacing=5;spacingTop=-20;whiteSpace=wrap;overflow=hidden;rounded=0;shadow=0;fontSize=14;dashed=1;" vertex="1" parent="1">
                    <mxGeometry x="1850" y="1009" width="152" height="160" as="geometry"/>
                </mxCell>
                <mxCell id="84" value="&lt;h1&gt;&lt;span style=&quot;font-size: 20px&quot;&gt;Node&lt;/span&gt;&lt;/h1&gt;&lt;div style=&quot;color: rgb(212 , 212 , 212) ; background-color: rgb(30 , 30 , 30) ; font-family: &amp;#34;droid sans mono&amp;#34; , &amp;#34;monospace&amp;#34; , monospace ; line-height: 19px&quot;&gt;&lt;div style=&quot;font-family: &amp;#34;droid sans mono&amp;#34; , &amp;#34;monospace&amp;#34; , monospace ; line-height: 19px&quot;&gt;&lt;div style=&quot;font-family: &amp;#34;droid sans mono&amp;#34; , &amp;#34;monospace&amp;#34; , monospace ; line-height: 19px&quot;&gt;&lt;div style=&quot;font-family: &amp;#34;droid sans mono&amp;#34; , &amp;#34;monospace&amp;#34; , monospace ; line-height: 19px&quot;&gt;&lt;div style=&quot;font-family: &amp;#34;droid sans mono&amp;#34; , &amp;#34;monospace&amp;#34; , monospace ; line-height: 19px&quot;&gt;&lt;div style=&quot;font-family: &amp;#34;droid sans mono&amp;#34; , &amp;#34;monospace&amp;#34; , monospace ; line-height: 19px&quot;&gt;&lt;div style=&quot;font-family: &amp;#34;droid sans mono&amp;#34; , &amp;#34;monospace&amp;#34; , monospace ; line-height: 19px&quot;&gt;&lt;span style=&quot;color: #ce9178&quot;&gt;nav2_bt_navigator&lt;/span&gt;&lt;/div&gt;&lt;/div&gt;&lt;/div&gt;&lt;div style=&quot;font-family: &amp;#34;droid sans mono&amp;#34; , &amp;#34;monospace&amp;#34; , monospace ; line-height: 19px&quot;&gt;&lt;span style=&quot;color: rgb(206 , 145 , 120)&quot;&gt;{&lt;/span&gt;&lt;/div&gt;&lt;div style=&quot;font-family: &amp;#34;droid sans mono&amp;#34; , &amp;#34;monospace&amp;#34; , monospace ; line-height: 19px&quot;&gt;&lt;div style=&quot;font-family: &amp;#34;droid sans mono&amp;#34; , &amp;#34;monospace&amp;#34; , monospace ; line-height: 19px&quot;&gt;&lt;span style=&quot;color: #9cdcfe&quot;&gt;configured_params&lt;/span&gt;&lt;/div&gt;&lt;/div&gt;&lt;/div&gt;&lt;/div&gt;&lt;/div&gt;&lt;/div&gt;&lt;div style=&quot;background-color: rgb(30 , 30 , 30) ; font-family: &amp;#34;droid sans mono&amp;#34; , &amp;#34;monospace&amp;#34; , monospace ; line-height: 19px&quot;&gt;&lt;div&gt;&lt;div style=&quot;font-family: &amp;#34;droid sans mono&amp;#34; , &amp;#34;monospace&amp;#34; , monospace ; line-height: 19px&quot;&gt;&lt;font color=&quot;#9cdcfe&quot;&gt;remapping&lt;/font&gt;&lt;/div&gt;&lt;/div&gt;&lt;div style=&quot;color: rgb(212 , 212 , 212)&quot;&gt;}&lt;/div&gt;&lt;/div&gt;" style="text;html=1;strokeColor=default;fillColor=none;spacing=5;spacingTop=-20;whiteSpace=wrap;overflow=hidden;rounded=0;shadow=0;fontSize=14;dashed=1;" vertex="1" parent="1">
                    <mxGeometry x="1663" y="1009" width="157" height="160" as="geometry"/>
                </mxCell>
                <mxCell id="85" value="&lt;h1&gt;&lt;span style=&quot;font-size: 20px&quot;&gt;Node&lt;/span&gt;&lt;/h1&gt;&lt;div style=&quot;color: rgb(212 , 212 , 212) ; background-color: rgb(30 , 30 , 30) ; font-family: &amp;#34;droid sans mono&amp;#34; , &amp;#34;monospace&amp;#34; , monospace ; line-height: 19px&quot;&gt;&lt;div style=&quot;font-family: &amp;#34;droid sans mono&amp;#34; , &amp;#34;monospace&amp;#34; , monospace ; line-height: 19px&quot;&gt;&lt;div style=&quot;font-family: &amp;#34;droid sans mono&amp;#34; , &amp;#34;monospace&amp;#34; , monospace ; line-height: 19px&quot;&gt;&lt;div style=&quot;font-family: &amp;#34;droid sans mono&amp;#34; , &amp;#34;monospace&amp;#34; , monospace ; line-height: 19px&quot;&gt;&lt;div style=&quot;font-family: &amp;#34;droid sans mono&amp;#34; , &amp;#34;monospace&amp;#34; , monospace ; line-height: 19px&quot;&gt;&lt;div style=&quot;font-family: &amp;#34;droid sans mono&amp;#34; , &amp;#34;monospace&amp;#34; , monospace ; line-height: 19px&quot;&gt;&lt;div style=&quot;font-family: &amp;#34;droid sans mono&amp;#34; , &amp;#34;monospace&amp;#34; , monospace ; line-height: 19px&quot;&gt;&lt;span style=&quot;color: #ce9178&quot;&gt;nav2_waypoint_follower&lt;/span&gt;&lt;/div&gt;&lt;/div&gt;&lt;/div&gt;&lt;div style=&quot;font-family: &amp;#34;droid sans mono&amp;#34; , &amp;#34;monospace&amp;#34; , monospace ; line-height: 19px&quot;&gt;&lt;span style=&quot;color: rgb(206 , 145 , 120)&quot;&gt;{&lt;/span&gt;&lt;/div&gt;&lt;div style=&quot;font-family: &amp;#34;droid sans mono&amp;#34; , &amp;#34;monospace&amp;#34; , monospace ; line-height: 19px&quot;&gt;&lt;div style=&quot;font-family: &amp;#34;droid sans mono&amp;#34; , &amp;#34;monospace&amp;#34; , monospace ; line-height: 19px&quot;&gt;&lt;span style=&quot;color: #9cdcfe&quot;&gt;configured_params&lt;/span&gt;&lt;/div&gt;&lt;/div&gt;&lt;/div&gt;&lt;/div&gt;&lt;/div&gt;&lt;/div&gt;&lt;div style=&quot;background-color: rgb(30 , 30 , 30) ; font-family: &amp;#34;droid sans mono&amp;#34; , &amp;#34;monospace&amp;#34; , monospace ; line-height: 19px&quot;&gt;&lt;div&gt;&lt;div style=&quot;font-family: &amp;#34;droid sans mono&amp;#34; , &amp;#34;monospace&amp;#34; , monospace ; line-height: 19px&quot;&gt;&lt;font color=&quot;#9cdcfe&quot;&gt;remapping&lt;/font&gt;&lt;/div&gt;&lt;/div&gt;&lt;div style=&quot;color: rgb(212 , 212 , 212)&quot;&gt;}&lt;/div&gt;&lt;/div&gt;" style="text;html=1;strokeColor=default;fillColor=none;spacing=5;spacingTop=-20;whiteSpace=wrap;overflow=hidden;rounded=0;shadow=0;fontSize=14;dashed=1;" vertex="1" parent="1">
                    <mxGeometry x="2032" y="1009" width="197" height="160" as="geometry"/>
                </mxCell>
            </root>
        </mxGraphModel>
    </diagram>
</mxfile>